<?xml version="1.0" encoding="utf-8"?>
<!-- Generator: Adobe Illustrator 13.0.0, SVG Export Plug-In  -->
<!DOCTYPE svg PUBLIC "-//W3C//DTD SVG 1.1//EN" "http://www.w3.org/Graphics/SVG/1.1/DTD/svg11.dtd" [
	<!ENTITY ns_flows "http://ns.adobe.com/Flows/1.0/">
]>
<svg version="1.1"
	 xmlns="http://www.w3.org/2000/svg" xmlns:xlink="http://www.w3.org/1999/xlink" xmlns:a="http://ns.adobe.com/AdobeSVGViewerExtensions/3.0/"
	 x="0px" y="0px" width="25px" height="25px" viewBox="-0.099 0.203 25 25" enable-background="new -0.099 0.203 25 25"
	 xml:space="preserve">
<defs>
</defs>
<path fill="#FFFFFF" d="M14.361,0.41v0.05c-0.43-0.045-0.865-0.073-1.308-0.073c-0.421,0-0.838,0.023-1.249,0.064V0.283
	C5.23,0.627,0,6.052,0,12.713c0,6.882,5.58,12.461,12.462,12.461c6.884,0,12.463-5.579,12.463-12.461
	C24.925,6.477,20.34,1.326,14.361,0.41z M0.955,13.918v-2.711H1.03c-0.044,0.417-0.068,0.842-0.068,1.271
	c0,0.488,0.037,0.967,0.094,1.44H0.955z M7.535,14.463c-0.966,0-1.75-0.784-1.75-1.751c0-0.966,0.784-1.75,1.75-1.75
	s1.751,0.784,1.751,1.75C9.286,13.679,8.501,14.463,7.535,14.463z M12.461,14.463c-0.966,0-1.75-0.784-1.75-1.751
	c0-0.966,0.784-1.75,1.75-1.75s1.75,0.784,1.75,1.75C14.211,13.679,13.428,14.463,12.461,14.463z M17.39,14.463
	c-0.967,0-1.751-0.784-1.751-1.751c0-0.966,0.784-1.75,1.751-1.75c0.965,0,1.75,0.784,1.75,1.75
	C19.14,13.679,18.354,14.463,17.39,14.463z"/>
<path fill="#542C2C" d="M12.409,0.147c0.475,0,0.944,0.029,1.406,0.078V0.171C13.148,0.069,12.47,0,11.774,0
	c-0.239,0-0.472,0.023-0.708,0.036v0.181C11.508,0.171,11.957,0.147,12.409,0.147z"/>
</svg>
