<?xml version="1.0" encoding="utf-8"?>
<!-- Generator: Adobe Illustrator 13.0.0, SVG Export Plug-In  -->
<!DOCTYPE svg PUBLIC "-//W3C//DTD SVG 1.1//EN" "http://www.w3.org/Graphics/SVG/1.1/DTD/svg11.dtd" [
	<!ENTITY ns_flows "http://ns.adobe.com/Flows/1.0/">
]>
<svg version="1.1"
	 xmlns="http://www.w3.org/2000/svg" xmlns:xlink="http://www.w3.org/1999/xlink" xmlns:a="http://ns.adobe.com/AdobeSVGViewerExtensions/3.0/"
	 x="0px" y="0px" width="38px" height="38px" viewBox="-0.165 -0.169 38 38" enable-background="new -0.165 -0.169 38 38"
	 xml:space="preserve">
<defs>
</defs>
<path fill="#FFFFFF" d="M6.416,18.409H6.335v2.916h0.109c-0.061-0.51-0.101-1.024-0.101-1.549
	C6.343,19.313,6.369,18.857,6.416,18.409z"/>
<path fill="#FFFFFF" d="M18,32.706v0.698h2.749v-0.708c-0.462,0.05-0.93,0.078-1.405,0.078C18.89,32.776,18.442,32.751,18,32.706z"
	/>
<path fill="#FFFFFF" d="M18.83,0C8.431,0,0,8.431,0,18.832c0,10.399,8.431,18.83,18.83,18.83c10.399,0,18.831-8.431,18.831-18.83
	C37.661,8.431,29.229,0,18.83,0z M29.497,32.511l-6.091-6.091c-1.876,1.292-4.15,2.046-6.598,2.046
	c-6.439,0-11.659-5.221-11.659-11.658c0-6.438,5.22-11.659,11.659-11.659c6.438,0,11.658,5.221,11.658,11.659
	c0,2.413-0.732,4.65-1.985,6.509l6.104,6.105L29.497,32.511z M16.808,9.121c-4.247,0-7.687,3.443-7.687,7.688
	c0,4.246,3.44,7.687,7.687,7.687c4.245,0,7.687-3.441,7.687-7.687C24.495,12.563,21.053,9.121,16.808,9.121z"/>
</svg>
