<?xml version="1.0" encoding="utf-8"?>
<!-- Generator: Adobe Illustrator 13.0.0, SVG Export Plug-In  -->
<!DOCTYPE svg PUBLIC "-//W3C//DTD SVG 1.1//EN" "http://www.w3.org/Graphics/SVG/1.1/DTD/svg11.dtd" [
	<!ENTITY ns_flows "http://ns.adobe.com/Flows/1.0/">
]>
<svg version="1.1"
	 xmlns="http://www.w3.org/2000/svg" xmlns:xlink="http://www.w3.org/1999/xlink" xmlns:a="http://ns.adobe.com/AdobeSVGViewerExtensions/3.0/"
	 x="0px" y="0px" width="38px" height="38px" viewBox="-0.135 -0.11 38 38" enable-background="new -0.135 -0.11 38 38"
	 xml:space="preserve">
<defs>
</defs>
<path fill="#FFFFFF" d="M19,0C8.507,0,0,8.507,0,19s8.507,18.999,19,18.999S38,29.493,38,19S29.493,0,19,0z M19,33.665
	c-8.1,0-14.666-6.564-14.666-14.666C4.334,10.9,10.9,4.334,19,4.334S33.666,10.9,33.666,19C33.666,27.101,27.1,33.665,19,33.665z"/>
<path fill="#00FF30" d="M19.003,18.851h-0.008v0.121c0,0,0.001,0,0.001,0C18.997,18.932,18.999,18.891,19.003,18.851z"/>
<path fill="#00FF30" d="M18.995,19.148h0.011c-0.004-0.037-0.005-0.075-0.007-0.112h-0.003V19.148z"/>
<path fill="#00FF30" d="M18.86,18.965v0.071h0.134v-0.064C18.949,18.972,18.905,18.969,18.86,18.965z"/>
<path fill="#00FF30" d="M18.996,18.972c0,0.006-0.001,0.012-0.001,0.019c0,0.016,0.002,0.03,0.003,0.046h0.142v-0.073
	C19.093,18.969,19.046,18.972,18.996,18.972C18.997,18.972,18.997,18.972,18.996,18.972z"/>
<path fill="#00FF30" d="M18.996,18.972c0,0-0.001,0-0.001,0v0.064h0.003c0-0.016-0.003-0.03-0.003-0.046
	C18.995,18.984,18.996,18.978,18.996,18.972z"/>
<path fill="#FFFFFF" d="M19,7.541C12.672,7.541,7.542,12.672,7.542,19S12.672,30.458,19,30.458S30.458,25.328,30.458,19
	S25.328,7.541,19,7.541z M23.752,23.608c-0.673,0.672-1.561,0.359-1.561,0.359l-4.465-4.463v-9.06c0,0,0.272-0.849,1.223-0.849
	c0.95,0,1.357,0.849,1.357,0.849v7.991l3.708,3.707C24.015,22.144,24.424,22.937,23.752,23.608z"/>
</svg>
