<?xml version="1.0" encoding="utf-8"?>
<!-- Generator: Adobe Illustrator 13.0.0, SVG Export Plug-In  -->
<!DOCTYPE svg PUBLIC "-//W3C//DTD SVG 1.1//EN" "http://www.w3.org/Graphics/SVG/1.1/DTD/svg11.dtd" [
	<!ENTITY ns_flows "http://ns.adobe.com/Flows/1.0/">
]>
<svg version="1.1"
	 xmlns="http://www.w3.org/2000/svg" xmlns:xlink="http://www.w3.org/1999/xlink" xmlns:a="http://ns.adobe.com/AdobeSVGViewerExtensions/3.0/"
	 x="0px" y="0px" width="26px" height="26px" viewBox="0.008 0.445 26 26" enable-background="new 0.008 0.445 26 26"
	 xml:space="preserve">
<defs>
</defs>
<path fill="#FFFFFF" d="M11.665,7.969V0.514c-2.65,0.272-5.062,1.343-6.997,2.964C6.787,6.961,11.665,7.969,11.665,7.969z"/>
<path fill="#FFFFFF" d="M11.574,16.96v-1.967H0.109c0.296,2.489,1.291,4.763,2.79,6.616C4.271,19.784,6.833,17.959,11.574,16.96z"/>
<path fill="#FFFFFF" d="M4.741,23.477c1.922,1.587,4.309,2.63,6.924,2.898v-7.272C11.665,19.103,6.896,20.089,4.741,23.477z"/>
<path fill="#FFFFFF" d="M21.388,3.514c-1.927-1.628-4.33-2.706-6.975-2.991v7.446C14.414,7.969,19.258,6.968,21.388,3.514z"/>
<path fill="#FFFFFF" d="M14.507,10.115v1.963h11.428c-0.261-2.502-1.239-4.787-2.716-6.662C21.856,7.259,19.29,9.106,14.507,10.115z
	"/>
<path fill="#FFFFFF" d="M11.574,10.115C6.754,9.098,4.184,7.23,2.829,5.373c-1.495,1.883-2.484,4.184-2.748,6.705h11.493V10.115z"/>
<path fill="#FFFFFF" d="M14.414,19.103v7.263c2.609-0.28,4.988-1.332,6.902-2.924C19.149,20.082,14.414,19.103,14.414,19.103z"/>
<path fill="#FFFFFF" d="M14.507,14.994v1.967c4.704,0.991,7.262,2.795,8.642,4.607c1.48-1.846,2.465-4.103,2.759-6.574H14.507z"/>
<path fill="#FFFFFF" d="M14.414,0.523V0h-2.749v0.514c0.442-0.045,0.89-0.069,1.343-0.069C13.483,0.445,13.952,0.474,14.414,0.523z"
	/>
<path fill="#FFFFFF" d="M25.908,14.994h0.172v-2.916h-0.145c0.047,0.449,0.073,0.905,0.073,1.367
	C26.008,13.97,25.968,14.485,25.908,14.994z"/>
<path fill="#FFFFFF" d="M0.081,12.078H0v2.916h0.109c-0.061-0.509-0.101-1.024-0.101-1.549C0.008,12.983,0.034,12.527,0.081,12.078z
	"/>
<path fill="#FFFFFF" d="M11.665,26.375v0.698h2.749v-0.708c-0.462,0.05-0.93,0.079-1.405,0.079
	C12.555,26.445,12.107,26.421,11.665,26.375z"/>
</svg>
